<?xml version="1.0" encoding="UTF-8"?>
<svg id="svg2" xmlns="http://www.w3.org/2000/svg" version="1.1" xmlns:cc="http://creativecommons.org/ns#" xmlns:dc="http://purl.org/dc/elements/1.1/" xmlns:rdf="http://www.w3.org/1999/02/22-rdf-syntax-ns#" xmlns:svg="http://www.w3.org/2000/svg" xmlns:xlink="http://www.w3.org/1999/xlink" viewBox="0 0 400 267">
  <!-- Generator: Adobe Illustrator 29.1.0, SVG Export Plug-In . SVG Version: 2.1.0 Build 142)  -->
  <defs>
    <style>
      .st0 {
        fill: none;
      }

      .st1 {
        clip-path: url(#clippath-1);
      }

      .st2 {
        fill: #3d3d38;
      }

      .st3 {
        fill: url(#Degradado_sin_nombre);
      }

      .st4 {
        clip-path: url(#clippath);
      }
    </style>
    <clipPath id="clippath">
      <rect class="st0" y=".2" width="400" height="266.7"/>
    </clipPath>
    <linearGradient id="Degradado_sin_nombre" data-name="Degradado sin nombre" x1="-332.2" y1="1077.6" x2="-331.2" y2="1077.6" gradientTransform="translate(16944.5 53947.2) scale(50 -50)" gradientUnits="userSpaceOnUse">
      <stop offset="0" stop-color="#d82737"/>
      <stop offset="1" stop-color="#dc351b"/>
    </linearGradient>
    <clipPath id="clippath-1">
      <rect class="st0" y=".2" width="400" height="266.7"/>
    </clipPath>
  </defs>
  <g id="g10">
    <g id="g12">
      <path id="path14" class="st2" d="M87.4,211.5h-14.5v-23.8h14.5v3h-12.8l1.5-1.3v8.7h10.2v2.9h-10.2v8.9l-1.5-1.3h12.8v3Z"/>
    </g>
    <g id="g16">
      <g class="st4">
        <g id="g18">
          <g id="g24">
            <path id="path26" class="st2" d="M110.4,194.2c0-1.4.3-2.6,1-3.6.7-1,1.6-1.8,2.9-2.4,1.2-.6,2.7-.9,4.3-.9s2.8.3,4,.8c1.1.5,2,1.3,2.7,2.3.6,1,1,2.2,1.1,3.6h-3.3c0-1.2-.5-2.1-1.3-2.8-.8-.7-1.9-1-3.2-1s-2.7.3-3.6,1c-.9.7-1.3,1.6-1.3,2.8s.3,1.7.8,2.3c.5.6,1.4,1,2.5,1.3l3.9.9c2,.4,3.4,1.2,4.4,2.3,1,1.1,1.5,2.4,1.5,4.1s-.3,2.7-1,3.7c-.7,1.1-1.7,1.9-2.9,2.4-1.3.6-2.7.9-4.4.9s-3-.3-4.2-.8c-1.2-.5-2.2-1.3-2.9-2.3-.7-1-1.1-2.2-1.2-3.5h3.3c0,1.1.5,2,1.4,2.7.9.7,2.1,1,3.6,1s2.8-.4,3.8-1.1c.9-.7,1.4-1.6,1.4-2.8s-.3-1.7-.8-2.3c-.5-.6-1.4-1-2.5-1.3l-3.9-.9c-1.9-.4-3.4-1.2-4.4-2.3-1-1.1-1.5-2.5-1.5-4.2"/>
          </g>
          <path id="path28" class="st2" d="M158.3,211.5h-3.2v-22.3h3.2v22.3ZM147.9,187.8h17.5v3h-17.5v-3Z"/>
          <g id="g30">
            <path id="path32" class="st2" d="M188.3,203.1v-15.3h3.2v15.1c0,1.9.5,3.4,1.5,4.4,1,1,2.5,1.5,4.4,1.5s3.3-.5,4.3-1.5c1-1,1.5-2.5,1.5-4.4v-15.1h3.3v15.3c0,1.8-.4,3.4-1.1,4.7-.7,1.3-1.8,2.3-3.1,3.1-1.4.7-3,1.1-4.8,1.1s-3.5-.4-4.9-1.1c-1.4-.7-2.4-1.7-3.2-3.1-.7-1.3-1.1-2.9-1.1-4.7"/>
          </g>
          <g id="g34">
            <path id="path36" class="st2" d="M234.8,189.3v20.8l-1.5-1.5h5.9c1.8,0,3.3-.4,4.6-1.1,1.3-.7,2.3-1.7,3-3.1s1.1-2.9,1.1-4.7-.4-3.4-1.1-4.8c-.7-1.3-1.7-2.4-3-3.1s-2.9-1.1-4.7-1.1h-5.8l1.5-1.4ZM239.4,211.5h-7.9v-23.8h7.7c2.4,0,4.4.5,6.2,1.5,1.8,1,3.2,2.4,4.2,4.2,1,1.8,1.5,3.9,1.5,6.2s-.5,4.4-1.5,6.2c-1,1.8-2.4,3.2-4.1,4.2-1.8,1-3.8,1.5-6.2,1.5"/>
          </g>
          <path id="path38" class="st2" d="M278.3,211.5h-3.2v-23.8h3.2v23.8Z"/>
          <g id="g40">
            <path id="path42" class="st2" d="M321.7,199.6c0-1.8-.3-3.5-1-4.8-.7-1.4-1.6-2.5-2.8-3.2-1.2-.8-2.6-1.1-4.2-1.1s-3,.4-4.2,1.1c-1.2.8-2.1,1.8-2.8,3.2-.7,1.4-1,3-1,4.8s.3,3.5,1,4.8c.7,1.4,1.6,2.5,2.8,3.2,1.2.8,2.6,1.2,4.2,1.2s3-.4,4.2-1.2c1.2-.8,2.1-1.9,2.8-3.2.7-1.4,1-3,1-4.8M325.1,199.6c0,2.4-.5,4.5-1.5,6.4-1,1.9-2.3,3.3-4,4.3s-3.7,1.6-6,1.6-4.2-.5-5.9-1.6c-1.7-1-3.1-2.5-4-4.3-1-1.8-1.4-4-1.4-6.4s.5-4.5,1.5-6.4c1-1.8,2.3-3.3,4-4.3,1.7-1.1,3.7-1.6,5.9-1.6s4.2.5,6,1.6c1.7,1.1,3.1,2.5,4,4.3,1,1.8,1.5,4,1.5,6.4"/>
          </g>
        </g>
      </g>
    </g>
    <g id="g44">
      <g id="g46">
        <g id="g52">
          <g id="g54">
            <path id="path62" class="st3" d="M333.7,75.7h50v-20.3h-50v20.3Z"/>
          </g>
        </g>
      </g>
    </g>
    <g id="g64">
      <g class="st1">
        <g id="g66">
          <g id="g72">
            <path id="path74" class="st2" d="M53.9,139.9c-5.6,6.2-13.1,9.6-21.4,9.6s-12.1-2.9-12.1-7,4-5.5,9.9-5.5h23.6v2.9ZM33.7,89.5c-8.9,0-17.7,1-24.9,1.7l1.4,19.8c4.6-.9,13.5-2.3,22-2.3s20,2.2,20.5,10.2v.7h-23C12.5,119.7,0,125.7.3,143.8c.3,15.5,14.4,25.7,29.6,25.7s17-4.5,24.6-11.2v9.2h19.8v-45.4c0-27.2-20.4-32.6-40.7-32.6"/>
          </g>
          <g id="g76">
            <path id="path78" class="st2" d="M108.7,100.6v-9.3c.1,0-19.8,0-19.8,0v76.3h21v-39.8c0-11.2,10.1-16.4,20.4-16.4s5.9.4,8.6,1.2v-21.3c-1.9-.3-3.6-.4-5.3-.4-14.1,0-23.3,7.8-24.9,9.8"/>
          </g>
          <g id="g80">
            <path id="path82" class="st2" d="M220.9,91.1h-22.1c-5.6,14.7-15.1,25-29.5,31.2V55.5h-21.3v112.1h21.3v-22.3c2.9-1.1,5.7-2.3,8.6-3.6l21.8,25.9h28l-31.5-36.9c12.2-10.2,20.8-24,24.6-39.5"/>
          </g>
          <g id="g84">
            <path id="path86" class="st2" d="M277.6,89.2c-8.5,0-16.4,4-22.3,11.4v-45.1h-20.3v112.1h21.1v-38.8c0-10.5,8.3-17.5,17.1-17.5s14.8,6.3,14.8,16.8v39.5h21v-40.7c0-18.8-11.1-37.6-31.5-37.6"/>
          </g>
          <g id="g88">
            <path id="path90" class="st2" d="M340.1,119.7c2.2-6.2,8.5-11.8,18.5-11.8s16.5,5.6,18.7,11.8h-37.2ZM358.1,89.2c-21.7,0-39.4,18-39.4,40.1s17.2,40.2,41.2,40.2,26-6.2,33.2-15.2l-17.2-10.1c-3.6,3.4-11.1,6-16.4,6-10.3,0-17.4-6-20-13.9h57.5c4.3-23.8-14.2-47.1-38.9-47.1"/>
          </g>
          <g id="g92">
            <path id="path94" class="st2" d="M340.6,182.5h.9c1,0,1.8-.3,1.8-1.1s-.5-1.2-1.7-1.2c-.5,0-.8,0-1,0v2.2ZM340.5,186.9h-1.8v-7.8c.7-.1,1.7-.2,3-.2s2.1.2,2.7.6c.4.3.8,1,.8,1.7s-.7,1.5-1.6,1.8h0c.8.4,1.2,1,1.4,2,.2,1.2.4,1.7.6,1.9h-2c-.2-.3-.4-1-.6-1.9-.1-.9-.6-1.2-1.6-1.2h-.9v3.1ZM335.7,182.8c0,3.5,2.6,6.2,6.1,6.2s5.9-2.8,5.9-6.2-2.5-6.3-6-6.3-6,2.8-6,6.2M349.7,182.8c0,4.4-3.5,7.9-8,7.9s-8-3.5-8-7.9,3.6-7.8,8-7.8,8,3.5,8,7.8"/>
          </g>
        </g>
      </g>
    </g>
  </g>
</svg>