<?xml version="1.0" encoding="UTF-8"?>
<svg id="svg2" xmlns="http://www.w3.org/2000/svg" version="1.1" xmlns:cc="http://creativecommons.org/ns#" xmlns:dc="http://purl.org/dc/elements/1.1/" xmlns:rdf="http://www.w3.org/1999/02/22-rdf-syntax-ns#" xmlns:svg="http://www.w3.org/2000/svg" viewBox="0 0 400 267">
  <!-- Generator: Adobe Illustrator 29.1.0, SVG Export Plug-In . SVG Version: 2.1.0 Build 142)  -->
  <defs>
    <style>
      .st0, .st1 {
        fill: #fff;
      }

      .st1 {
        font-family: BankGothicBT-Light, 'BankGothic Lt BT';
        font-size: 46px;
        font-weight: 300;
      }

      .st1, .st2 {
        isolation: isolate;
      }
    </style>
  </defs>
  <g id="g10">
    <g id="g12">
      <g id="g14">
        <g id="g20">
          <path id="path22" class="st0" d="M232.5,65.5h-26l-14.5,40.2c-.3.9-1.2,1.3-1.9,1.1l-3.8-1.4c-.8-.3-1.1-1.2-.8-2l13.6-37.8h-31.6c-.9,0-1.7-.7-1.7-1.5v-4.2c0-.8.7-1.5,1.7-1.5h34.2l5.8-16c.3-.9,1.2-1.3,1.9-1.1l3.8,1.4c.8.3,1.1,1.2.8,2l-4.9,13.6h23.3c.9,0,1.7.7,1.7,1.5v4.2c0,.8-.7,1.5-1.7,1.5M234.2,88.3c0,.8-.7,1.5-1.7,1.5h-33.1l2.6-7.3h30.5c.9,0,1.7.7,1.7,1.5v4.2h0ZM166,88.3v-4.2c0-.8.7-1.5,1.7-1.5h23.7l-2.6,7.3h-21.1c-.9,0-1.7-.7-1.7-1.5M165.8,71.9c0-.8.6-1.5,1.4-1.5h16.7c.8,0,1.4.7,1.4,1.5v4.3c0,.8-.6,1.5-1.4,1.5h-16.7c-.8,0-1.4-.7-1.4-1.5v-4.3ZM200,26.8c-25.6,0-46.3,20.7-46.3,46.3s20.7,46.3,46.3,46.3,46.3-20.7,46.3-46.3-20.7-46.3-46.3-46.3"/>
        </g>
      </g>
    </g>
    <g id="text26" class="st2">
      <g class="st2">
        <text class="st1" transform="translate(102.3 222)"><tspan x="0" y="0">e</tspan></text>
      </g>
      <g class="st2">
        <text class="st1" transform="translate(130.3 222)"><tspan x="0" y="0">s</tspan></text>
      </g>
      <g class="st2">
        <text class="st1" transform="translate(160.7 222)"><tspan x="0" y="0">t</tspan></text>
      </g>
      <g class="st2">
        <text class="st1" transform="translate(187.9 222)"><tspan x="0" y="0">u</tspan></text>
      </g>
      <g class="st2">
        <text class="st1" transform="translate(219.6 222)"><tspan x="0" y="0">d</tspan></text>
      </g>
      <g class="st2">
        <text class="st1" transform="translate(251.5 222)"><tspan x="0" y="0">i</tspan></text>
      </g>
      <g class="st2">
        <text class="st1" transform="translate(264.8 222)"><tspan x="0" y="0">o</tspan></text>
      </g>
    </g>
    <g id="g28">
      <g id="g30">
        <g id="g36">
          <path id="path38" class="st0" d="M396.2,184.8l-15.6-37.4c-.5-1.1-.5-2.3-2.4-2.3h-7.2c-1.9,0-1.9,1.2-2.4,2.3l-15.8,37.4c-.5,1.3-.2,4.6,2,4.6h5.4c1.8,0,2.7-1.5,3.4-3.2l2.7-6.5,2.8-7.4h0c0-.1,5.7-13.4,5.7-13.4l5.8,13.3h-9.3l-2.4,6.7h13.8l3,7.1c.7,1.5,1.8,3.2,3.5,3.2h5.3c2.3,0,2.8-2.6,1.8-4.6"/>
        </g>
        <g id="g40">
          <path id="path42" class="st0" d="M346.4,184.9l-5.5-13c.9-.2,1.7-.6,2.5-1.2,2.1-2,3.2-4.6,3.2-7.8v-8.7c0-.9-.1-1.7-.3-2.5-1.1-4.4-3.3-6.6-6.6-6.6h-34.6c-1.2,0-2.2,1.5-2.2,3.3v37.8c0,1.8,1,3.3,2.2,3.3h6.2c1.2,0,2.2-1.5,2.2-3.3v-31.3h23.2v8.3h-17.6l-3.2,8.9h13.2s1.2,0,1.3.2c0,.4,2.8,8.1,2.8,8.1l2.6,6c.8,1.5,1.9,3.1,3.6,3.1h5.4c2.3,0,2.9-2.5,1.9-4.5"/>
        </g>
        <g id="g44">
          <path id="path46" class="st0" d="M297.1,179.3h-41.2c-1.6,0-2.9.9-2.9,2.1v5.9c0,1.2,1.3,2.1,2.9,2.1h36.6l4.6-10.1Z"/>
        </g>
        <g id="g48">
          <path id="path50" class="st0" d="M255.4,171.9h26.6c1.3,0,2.3-.9,2.3-2.1v-5.9c0-1.2-1-2.1-2.3-2.1h-26.6c-1.3,0-2.3.9-2.3,2.1v5.9c0,1.2,1,2.1,2.3,2.1"/>
        </g>
        <g id="g52">
          <path id="path54" class="st0" d="M256.3,155.2h37.5c1.8,0,3.3-.9,3.3-2.1v-5.9c0-1.2-1.5-2.1-3.3-2.1h-37.5c-1.8,0-3.3.9-3.3,2.1v5.9c0,1.2,1.5,2.1,3.3,2.1"/>
        </g>
        <g id="g56">
          <path id="path58" class="st0" d="M245.8,145.1h-40.6c-1.6,0-2.8.9-2.8,2.1v5.9c0,1.2,1.3,2.1,2.8,2.1h14.1v31c0,1.8.9,3.2,2.1,3.2h5.9c1.2,0,2.1-1.4,2.1-3.2v-31h11.9l4.5-10.1h0Z"/>
        </g>
        <g id="g60">
          <path id="path62" class="st0" d="M197.5,179.3h-41.2c-1.6,0-2.9.9-2.9,2.1v5.8c0,1.2,1.3,2.1,2.9,2.1h36.6l4.6-10.1h0Z"/>
        </g>
        <g id="g64">
          <path id="path66" class="st0" d="M155.8,171.9h26.6c1.3,0,2.3-.9,2.3-2.1v-5.9c0-1.2-1-2.1-2.3-2.1h-26.6c-1.3,0-2.3.9-2.3,2.1v5.9c0,1.2,1,2.1,2.3,2.1"/>
        </g>
        <g id="g68">
          <path id="path70" class="st0" d="M156.7,155.2h37.5c1.8,0,3.3-.9,3.3-2.1v-5.9c0-1.2-1.5-2.1-3.3-2.1h-37.5c-1.8,0-3.3.9-3.3,2.1v5.9c0,1.2,1.5,2.1,3.3,2.1"/>
        </g>
        <g id="g72">
          <path id="path74" class="st0" d="M143.8,179.3h-31.1v-24.1h29.7l4.4-10.1h-42.2c-1.2,0-2.1,1.5-2.1,3.3v37.8c0,1.8.9,3.3,2.1,3.3h39.2c1.7,0,3-.9,3-2.1v-5.9c0-1.2-1.4-2.1-3-2.1"/>
        </g>
        <g id="g76">
          <path id="path78" class="st0" d="M96.8,145.1h-40.6c-1.6,0-2.8.9-2.8,2.1v5.9c0,1.2,1.3,2.1,2.8,2.1h14.1v31.1c0,1.8.9,3.2,2.1,3.2h5.9c1.2,0,2.1-1.4,2.1-3.2v-31.1h11.8l4.5-10.1h0Z"/>
        </g>
        <g id="g80">
          <path id="path82" class="st0" d="M47.3,179.3H6.2c-1.6,0-2.9.9-2.9,2.1v5.8c0,1.2,1.3,2.1,2.9,2.1h36.6l4.6-10.1h0Z"/>
        </g>
        <g id="g84">
          <path id="path86" class="st0" d="M5.6,171.9h26.6c1.3,0,2.3-.9,2.3-2.1v-5.9c0-1.2-1-2.1-2.3-2.1H5.6c-1.3,0-2.3.9-2.3,2.1v5.9c0,1.2,1,2.1,2.3,2.1"/>
        </g>
        <g id="g88">
          <path id="path90" class="st0" d="M6.6,155.2h37.5c1.8,0,3.3-.9,3.3-2.1v-5.9c0-1.2-1.5-2.1-3.3-2.1H6.6c-1.8,0-3.3.9-3.3,2.1v5.9c0,1.2,1.5,2.1,3.3,2.1"/>
        </g>
      </g>
    </g>
  </g>
</svg>