<?xml version="1.0" encoding="UTF-8"?>
<svg id="Capa_1" xmlns="http://www.w3.org/2000/svg" version="1.1" viewBox="0 0 180 54">
  <!-- Generator: Adobe Illustrator 29.1.0, SVG Export Plug-In . SVG Version: 2.1.0 Build 142)  -->
  <defs>
    <style>
      .st0 {
        fill: #fff;
      }
    </style>
  </defs>
  <g>
    <path class="st0" d="M39.7,46.6c.2,0,.4,0,.5.1.2,0,.3.2.4.3.1.1.2.3.3.4,0,.2.1.4.1.5v3h-.6v-3c0-.1,0-.2,0-.3,0-.1-.1-.2-.2-.3s-.2-.1-.3-.2c-.1,0-.2,0-.3,0h-1.9v3.8h-.6v-3.8h-2.8v3.8h-.6v-4.4h5.9Z"/>
    <path class="st0" d="M46.8,48c0-.2,0-.4.1-.6,0-.2.2-.3.3-.5.1-.1.3-.2.4-.3.2,0,.4-.1.5-.1h3c.2,0,.4,0,.5.1.2,0,.3.2.4.3.1.1.2.3.3.5s.1.4.1.6,0,.4-.1.6c0,.2-.2.3-.3.5-.1.1-.3.2-.4.3-.2,0-.4.1-.5.1h-3.8c0,.2,0,.3,0,.4s.1.2.2.3.2.1.3.2c.1,0,.2,0,.3,0h3.6v.6h-3.6c-.2,0-.4,0-.5-.1-.2,0-.3-.2-.4-.3-.1-.1-.2-.3-.3-.5s-.1-.4-.1-.6v-1.5h0ZM47.4,48.9h3.8c.1,0,.2,0,.3,0s.2-.1.3-.2c0,0,.1-.2.2-.3,0-.1,0-.2,0-.3s0-.2,0-.3-.1-.2-.2-.3c0,0-.2-.1-.3-.2-.1,0-.2,0-.3,0h-3c-.1,0-.2,0-.3,0s-.2.1-.3.2c0,0-.1.2-.2.3,0,.1,0,.2,0,.3v.8h0Z"/>
    <path class="st0" d="M58,49.6v-1.5c0-.2,0-.4.1-.5,0-.2.2-.3.3-.4.1-.1.3-.2.4-.3.2,0,.4-.1.5-.1h3c.2,0,.5,0,.7.2h.1c0,0,0-1.7,0-1.7h.6v5.8h-.6v-.3h-.1c-.2.2-.5.3-.7.3h-3c-.2,0-.4,0-.5-.1-.2,0-.3-.2-.4-.3-.1-.1-.2-.3-.3-.5s-.1-.4-.1-.6h0ZM58.5,48v1.5c0,.1,0,.2,0,.3s.1.2.2.3.2.1.3.2c.1,0,.2,0,.3,0h3c.1,0,.2,0,.3,0s.2-.1.3-.2.1-.2.2-.3,0-.2,0-.3v-1.5c0-.2,0-.4-.2-.6-.2-.2-.4-.2-.6-.2h-3c-.1,0-.2,0-.3,0s-.2.1-.3.2c0,0-.1.2-.2.3,0,.1,0,.2,0,.3h0Z"/>
    <path class="st0" d="M69.4,45.1h.6v.6h-.6v-.6ZM69.4,49.6v-3h.6v3c0,.1,0,.2,0,.3s.1.2.2.3.2.1.3.2c.1,0,.2,0,.3,0h.6v.6h-.6c-.2,0-.4,0-.5-.1-.2,0-.3-.2-.4-.3-.1-.1-.2-.3-.3-.5s-.1-.4-.1-.6h0Z"/>
    <path class="st0" d="M77.9,48.1h3c.3,0,.5,0,.7.2h.1c0,0,0-.3,0-.3,0-.1,0-.2,0-.3,0-.1-.1-.2-.2-.3,0,0-.2-.1-.3-.2-.1,0-.2,0-.3,0h-3.6l.2-.6h3.5c.2,0,.4,0,.5.1.2,0,.3.2.4.3s.2.3.3.5.1.4.1.6v3h-.6v-.3h-.1c-.2.2-.4.3-.7.3h-3c-.2,0-.4,0-.5-.1-.2,0-.3-.2-.4-.3-.1-.1-.2-.3-.3-.5s-.1-.4-.1-.6,0-.4.1-.6c0-.2.2-.3.3-.5s.3-.2.4-.3.4-.1.5-.1h0ZM77.1,49.6c0,.1,0,.2,0,.3,0,.1.1.2.2.3,0,0,.2.1.3.2.1,0,.2,0,.3,0h3c.1,0,.2,0,.3,0s.2-.1.3-.2c0,0,.1-.2.2-.3,0-.1,0-.2,0-.3s0-.2,0-.3c0-.1-.1-.2-.2-.3,0,0-.2-.1-.3-.2-.1,0-.2,0-.3,0h-3c-.1,0-.2,0-.3,0s-.2.1-.3.2c0,0-.1.2-.2.3s0,.2,0,.3Z"/>
    <path class="st0" d="M97,46.6h3c.3,0,.5,0,.7.2h.1c0,0,0-.2,0-.2h.6v4.5c0,.2,0,.4-.1.6,0,.2-.2.3-.3.5-.1.1-.3.2-.5.3-.2,0-.4.1-.6.1h-3.7v-.6h3.7c.1,0,.2,0,.3,0s.2-.1.3-.2c0,0,.1-.2.2-.3,0-.1,0-.2,0-.3v-.4h-.1c-.2.2-.5.3-.7.3h-3c-.2,0-.4,0-.6-.1-.2,0-.3-.2-.5-.3s-.2-.3-.3-.5-.1-.4-.1-.6v-1.5c0-.2,0-.4.1-.6,0-.2.2-.3.3-.5s.3-.2.5-.3c.2,0,.4-.1.6-.1h0ZM96.2,49.6c0,.1,0,.2,0,.3,0,.1.1.2.2.3,0,0,.2.1.3.2.1,0,.2,0,.3,0h3c.1,0,.2,0,.3,0s.2-.1.3-.2c0,0,.1-.2.2-.3,0-.1,0-.2,0-.3v-1.5c0-.1,0-.2,0-.3,0-.1-.1-.2-.2-.3,0,0-.2-.1-.3-.2-.1,0-.2,0-.3,0h-3c-.1,0-.2,0-.3,0s-.2.1-.3.2c0,0-.1.2-.2.3s0,.2,0,.3v1.5Z"/>
    <path class="st0" d="M107.7,46.6v.3h.1c.2-.2.4-.3.7-.3h3.6v.6h-3.6c-.1,0-.2,0-.3,0,0,0-.2.1-.3.2,0,0-.1.2-.2.3,0,.1,0,.2,0,.3v3h-.6v-4.4h.6Z"/>
    <path class="st0" d="M118.6,46.6h3c.2,0,.4,0,.5.1.2,0,.3.2.4.3s.2.3.3.4c0,.2.1.4.1.5v1.5c0,.2,0,.4-.1.6,0,.2-.2.3-.3.5s-.3.2-.4.3c-.2,0-.4.1-.5.1h-3c-.2,0-.4,0-.5-.1-.2,0-.3-.2-.4-.3-.1-.1-.2-.3-.3-.5s-.1-.4-.1-.6v-1.5c0-.2,0-.4.1-.5s.2-.3.3-.4c.1-.1.3-.2.4-.3.2,0,.4-.1.5-.1ZM117.8,48v1.5c0,.1,0,.2,0,.3s.1.2.2.3.2.1.3.2c.1,0,.2,0,.3,0h3c.1,0,.2,0,.3,0s.2-.1.3-.2.1-.2.2-.3,0-.2,0-.3v-1.5c0-.2,0-.4-.2-.6-.2-.2-.4-.2-.6-.2h-3c-.1,0-.2,0-.3,0s-.2.1-.3.2c0,0-.1.2-.2.3,0,.1,0,.2,0,.3h0Z"/>
    <path class="st0" d="M128.8,46.6h.6v3c0,.1,0,.2,0,.3s.1.2.2.3.2.1.3.2c.1,0,.2,0,.3,0h3c.1,0,.2,0,.3,0,.1,0,.2-.1.3-.2s.1-.2.2-.3,0-.2,0-.3v-3h.6v3c0,.2,0,.4-.1.6,0,.2-.2.3-.3.5s-.3.2-.4.3c-.2,0-.4.1-.5.1h-3c-.2,0-.4,0-.5-.1-.2,0-.3-.2-.4-.3-.1-.1-.2-.3-.3-.5s-.1-.4-.1-.6v-3Z"/>
    <path class="st0" d="M140.3,52.5v-5.9h.6v.3h.1c.2-.2.4-.3.7-.3h3c.2,0,.4,0,.5.1.2,0,.3.2.4.3s.2.3.3.4c0,.2.1.4.1.5v1.5c0,.2,0,.4-.1.6,0,.2-.2.3-.3.5s-.3.2-.4.3c-.2,0-.4.1-.5.1h-3c-.3,0-.5,0-.7-.2h-.1c0,0,0,1.7,0,1.7h-.6ZM140.9,49.6c0,.1,0,.2,0,.3s.1.2.2.3.2.1.3.2c.1,0,.2,0,.3,0h3c.1,0,.2,0,.3,0,.1,0,.2-.1.3-.2s.1-.2.2-.3,0-.2,0-.3v-1.5c0-.2,0-.4-.2-.6-.2-.2-.4-.2-.6-.2h-3c-.1,0-.2,0-.3,0s-.2.1-.3.2c0,0-.1.2-.2.3,0,.1,0,.2,0,.3v1.5h0Z"/>
  </g>
  <path class="st0" d="M28.5,8.1h-2.5c-1.1,0-2.1.9-2.1,2.1v15.2c0,.7-.9,1.1-1.4.5L8.8,9.6c-.9-1-2.1-1.6-3.4-1.6h-2.5c-1.1,0-2.1.9-2.1,2.1v25.6c0,1.1.9,2.1,2.1,2.1h2.5c1.1,0,2.1-.9,2.1-2.1v-15.2c0-.7.9-1.1,1.4-.5l13.8,16.2c.9,1,2.1,1.6,3.4,1.6h2.5c1.1,0,2.1-.9,2.1-2.1V10.1c0-1.1-.9-2.1-2.1-2.1h0Z"/>
  <rect class="st0" x="33.9" y="8.1" width="26.4" height="6.6" rx="2.1" ry="2.1"/>
  <path class="st0" d="M58.2,31.2h-17.7v-4.9h7.8c1.1,0,2.1-.9,2.1-2.1v-2.5c0-1.1-.9-2.1-2.1-2.1h-12.4c-1.1,0-2.1.9-2.1,2.1v14c0,1.1.9,2.1,2.1,2.1h2.5s0,0,0,0h19.7c1.1,0,2.1-.9,2.1-2.1v-2.5c0-1.1-.9-2.1-2.1-2.1h0Z"/>
  <path class="st0" d="M144,8.1h-23s0,0,0,0h-23.4c-1.1,0-2.1.9-2.1,2.1v2.5c0,1.1.9,2.1,2.1,2.1h8.9v21c0,1.1.9,2.1,2.1,2.1h2.5c1.1,0,2.1-.9,2.1-2.1V14.7h2.7s0,0,0,0h28.2c1.1,0,2.1-.9,2.1-2.1v-2.5c0-1.1-.9-2.1-2.1-2.1h0Z"/>
  <path class="st0" d="M146.1,33.2c0-1.1-.9-2.1-2.1-2.1h-17.7v-4.9h7.8c1.1,0,2.1-.9,2.1-2.1v-2.5c0-1.1-.9-2.1-2.1-2.1h-12.4c-1.1,0-2.1.9-2.1,2.1v2.5c0,0,0,.1,0,.2v8.6c0,0,0,.1,0,.2v2.5c0,1,.7,1.8,1.7,2,.1,0,.3,0,.4,0h2.5s0,0,0,0h19.7c1.1,0,2.1-.9,2.1-2.1v-2.5h0Z"/>
  <path class="st0" d="M177,8.1h-1.2s-22,0-22,0h0s-2.3,0-2.3,0c-1.1,0-2.1.9-2.1,2.1v25.6c0,1.1.9,2.1,2.1,2.1h2.5c1.1,0,2.1-.9,2.1-2.1v-19.3c0-1,.8-1.8,1.8-1.8h13c1,0,1.8.8,1.8,1.8v3.1c0,1-.8,1.8-1.8,1.8h-9.4c-1.1,0-2.1.9-2.1,2.1v2.5c0,1.1.9,2.1,2.1,2.1h12.4c.1,0,.3,0,.4,0,.1,0,.3,0,.4,0h2.5c1.1,0,2.1-.9,2.1-2.1v-15.7c0-1.1-.9-2.1-2.1-2.1h0Z"/>
  <g>
    <path class="st0" d="M92.8,22.6l-4.4,2.5,3.2,3.8,3.7-2.1c2-1.2,3.3-3.4,3.3-5.7s-1.3-4.5-3.3-5.7l-3.6-2.1-2.6,3.2-.6.7,4.3,2.5c1.1.6,1.1,2.2,0,2.9h0Z"/>
    <path class="st0" d="M79.5,30.3l-9.5,5.5c-.3.2-.6.2-.8.2-.9,0-1.7-.7-1.7-1.7V8c0-1,.8-1.7,1.7-1.7s.6,0,.8.2l9.5,5.5.2-.3,3-3.6-10.2-5.9c-1-.6-2.1-.9-3.3-.9h0c-3.6,0-6.6,3-6.6,6.6v26.3c0,3.6,3,6.6,6.6,6.6s2.3-.3,3.3-.9l10.2-5.9-3.2-3.8h0Z"/>
    <path class="st0" d="M83.3,21.3h0s4.6-5.7,4.6-5.7l8.7-10.8h-9.3l-6.4,8h0l-2.3,2.8-3.9-4.7-5.4-3.1s0,0-.1,0c0,0-.1,0-.2,0,0,0,0,.1,0,.2v7.1l5.1,6.1-5.1,6.1v7c0,.2.2.3.3.3s0,0,.1,0l5.6-3.2,3.7-4.5,8.8,10.9h9.3l-13.5-16.5h0Z"/>
  </g>
</svg>