<?xml version="1.0" encoding="UTF-8"?>
<svg id="svg2" xmlns="http://www.w3.org/2000/svg" version="1.1" xmlns:cc="http://creativecommons.org/ns#" xmlns:dc="http://purl.org/dc/elements/1.1/" xmlns:rdf="http://www.w3.org/1999/02/22-rdf-syntax-ns#" xmlns:svg="http://www.w3.org/2000/svg" viewBox="0 0 400 267">
  <!-- Generator: Adobe Illustrator 29.1.0, SVG Export Plug-In . SVG Version: 2.1.0 Build 142)  -->
  <defs>
    <style>
      .st0 {
        fill: #fff;
      }
    </style>
  </defs>
  <g id="g10">
    <g id="g12">
      <g id="g14">
        <g id="g20">
          <path id="path22" class="st0" d="M40.4,139.9c-10.7,0-16.2-7.1-16.4-16.4-.2-9.3,5.9-17.2,15.6-17.2s16.2,7.1,16.4,16.4c.2,9.3-5.8,17.2-15.6,17.2M40.2,86.5c-24.9,0-37.4,16.6-37.4,37.1v64h21.1v-36c4.3,4,9.4,8.3,18.8,8.3,18.3,0,34.9-12.7,34.9-36.4s-14.2-37.1-37.4-37.1"/>
        </g>
        <g id="g24">
          <path id="path26" class="st0" d="M123.5,139.9c-10.7,0-16.2-7.1-16.4-16.4-.2-9.3,5.9-17.2,15.6-17.2s16.2,7.1,16.4,16.4c.2,9.3-5.8,17.2-15.6,17.2M123.1,86.5c-22.7,0-37.7,16.4-37.7,36.7s14,36.7,37.7,36.7,37.7-16.4,37.7-36.7-15.5-36.7-37.7-36.7"/>
        </g>
        <g id="g28">
          <path id="path30" class="st0" d="M276.9,139.9c-10.7,0-16.2-7.1-16.4-16.4-.2-9.3,5.9-17.2,15.6-17.2s16.2,7.1,16.4,16.4c.2,9.3-5.8,17.2-15.6,17.2M276.7,86.5c-24.9,0-37.4,16.6-37.4,37.1v64h21.1v-36c4.3,4,9.4,8.3,18.8,8.3,18.3,0,34.9-12.7,34.9-36.4s-14.2-37.1-37.4-37.1"/>
        </g>
        <g id="g32">
          <path id="path34" class="st0" d="M359.6,154.6c-20.2,0-32.2-14.1-32.2-31.4s12.8-31.4,32.2-31.4,32.2,14.1,32.2,31.4-13,31.4-32.2,31.4M359.6,86.5c-22.7,0-37.7,16.4-37.7,36.7s14,36.7,37.7,36.7,37.7-16.4,37.7-36.7-15.5-36.7-37.7-36.7"/>
        </g>
        <g id="g36">
          <path id="path38" class="st0" d="M359.6,106.2c-10.3,0-17,7.6-17,16.9s6.3,16.9,17,16.9,17-7.6,17-16.9-7-16.9-17-16.9"/>
        </g>
        <g id="g40">
          <path id="path42" class="st0" d="M224.3,123.9s0,0-.1-.2c-.1-.2-.3-.4-.5-.6-5.8-6.6-21.8-8-27.1-9-5.6-1-5.2-4.4-5.2-4.4,0,0-.2-5.8,7.1-5.8s7.6,5.1,7.6,5.1h20.9c0-.8,0-1.5-.2-2.2-.9-11.4-12.4-20.4-28.4-20.4s-13.2,1.7-18,4.7c-.2,0-.3.2-.5.3,0,0-.1,0-.2,0-.6.4-1.2.8-1.7,1.2-.1,0-.3.2-.4.3h-.1c-4.1,3.3-6.8,7.7-7.5,12.5-.3,1.4-.4,2.8-.4,4.3,0,4.2,1.2,8.1,3.2,11.4h0c.3.5.6.9.9,1.4q.2.3,0,0c5,6.2,19.3,8.5,25.8,9.1,7,.6,7.1,4.5,7.1,4.5,0,0,1.8,5.9-8.1,5.9s-9-5.4-9-5.4h-20.7c0,1.3.2,2.5.4,3.8.7,4.8,3.5,9.2,7.8,12.5h.1c.1.1.3.2.4.3.6.4,1.2.8,1.8,1.2,0,0,.1,0,.2.1.2,0,.3.2.5.3,5,2.9,11.3,4.7,18.7,4.7,16.6,0,28.6-9,29.5-20.4.1-1,.2-2,.2-3,0-6.1-1.5-9.2-4-12.4h-.1Z"/>
        </g>
      </g>
    </g>
  </g>
</svg>